#!OML:ASF H:\Not Pregnant\Project 1\Capture day 1\Session 1\non-pregnant.ASF
:FULLY-SPECIFIED
:DEGREES
1203
root 8.76418 16.036 7.08523 6.23151 40.1286 -368.341
lowerback -0.109111 2.82147 7.2949
upperback -6.31084 4.12469 0.263083
thorax -6.06164 1.70149 -3.9949
lowerneck 37.8034 -14.3502 -29.6009
upperneck -16.9874 -27.0049 45.2913
head 1.09886 -18.0527 24.3378
rclavicle -2.91468e-014 2.38542e-015
rhumerus -34.1324 -6.34746 -83.3949
rradius 28.3491
rwrist 23.0281
rhand -10.7016 0.848581
rfingers 7.12502
rthumb 15.308 -28.5649
lclavicle -2.91468e-014 2.38542e-015
lhumerus -47.897 -0.747331 81.9905
lradius 41.8232
lwrist 42.289
lhand -16.1158 -11.3945
lfingers 7.12502
lthumb 10.0884 18.3436
rfemur -0.873512 10.4898 29.3168
rtibia 23.0755
rfoot -17.0804 21.652
rtoes -5.18511
lfemur -45.2835 -0.628834 -8.88934
ltibia 23.6202
lfoot -13.838 -7.19945
ltoes -20.3597
1204
root 8.90351 16.0158 7.17884 6.26163 39.8618 -368.321
lowerback -0.30574 2.80497 7.34574
upperback -6.3339 4.08937 0.281868
thorax -5.97641 1.68538 -3.99117
lowerneck 37.6858 -14.3042 -29.6521
upperneck -16.7567 -26.9945 45.2241
head 1.16798 -18.0256 24.2725
rclavicle 8.49307e-014 3.83654e-014
rhumerus -34.4075 -6.53332 -83.2463
rradius 28.1085
rwrist 23.246
rhand -10.5579 0.874324
rfingers 7.12502
rthumb 15.4463 -28.5285
lclavicle 8.49307e-014 3.83654e-014
lhumerus -48.1558 -0.56708 81.8847
lradius 41.3249
lwrist 42.0725
lhand -15.9703 -11.254
lfingers 7.12502
lthumb 10.2288 18.4773
rfemur -0.437334 10.5002 29.172
rtibia 23.3599
rfoot -16.6189 21.9549
rtoes -5.12056
lfemur -44.8261 -0.865947 -8.98029
ltibia 24.058
lfoot -13.7255 -7.56797
ltoes -19.7939
1205
root 9.04534 15.9977 7.27451 6.29468 39.5836 -368.3
lowerback -0.5339 2.78362 7.38761
upperback -6.35152 4.04441 0.311369
thorax -5.86973 1.66634 -3.96914
lowerneck 37.5594 -14.2571 -29.7082
upperneck -16.5278 -26.9832 45.1516
head 1.23715 -17.9964 24.2033
rclavicle -3.40419e-014 -3.1408e-014
rhumerus -34.6935 -6.69834 -83.0742
rradius 27.8959
rwrist 23.4653
rhand -10.3432 0.877059
rfingers 7.12502
rthumb 15.6532 -28.5097
lclavicle -3.40419e-014 -3.1408e-014
lhumerus -48.4331 -0.36464 81.7878
lradius 40.8239
lwrist 41.8669
lhand -15.8481 -11.0898
lfingers 7.12502
lthumb 10.3467 18.6357
rfemur 0.0296769 10.5043 29.0174
rtibia 23.5807
rfoot -16.0591 22.2807
rtoes -5.18991
lfemur -44.4104 -1.09131 -9.10263
ltibia 24.5979
lfoot -13.4976 -8.15196
ltoes -19.2454
1206
root 9.18933 15.9841 7.37235 6.33942 39.3036 -368.264
lowerback -0.774313 2.75921 7.41939
upperback -6.38126 3.99414 0.333007
thorax -5.7698 1.64445 -3.94963
lowerneck 37.4564 -14.2048 -29.7604
upperneck -16.2866 -26.9702 45.0776
head 1.30405 -17.9682 24.1398
rclavicle -6.01945e-015 -2.98177e-014
rhumerus -35.0152 -6.85795 -82.8952
rradius 27.7012
rwrist 23.6498
rhand -10.0985 0.873522
rfingers 7.12502
rthumb 15.8888 -28.4946
lclavicle -6.01945e-015 -2.98177e-014
lhumerus -48.7405 -0.16574 81.6806
lradius 40.306
lwrist 41.6654
lhand -15.7315 -10.9186
lfingers 7.12502
lthumb 10.4592 18.8012
rfemur 0.540445 10.5082 28.843
rtibia 23.7042
rfoot -15.3603 22.6286
rtoes -5.38982
lfemur -44.0765 -1.28398 -9.28469
ltibia 25.2201
lfoot -13.0958 -8.95768
ltoes -18.8818
1207
root 9.33535 15.9763 7.4724 6.39226 39.028 -368.217
lowerback -1.0341 2.73011 7.44351
upperback -6.41455 3.93543 0.34968
thorax -5.66377 1.61882 -3.93025
lowerneck 37.37 -14.1468 -29.8099
upperneck -16.0377 -26.953 45.0055
head 1.36855 -17.9398 24.0844
rclavicle 2.09097e-014 5.56597e-015
rhumerus -35.3599 -7.01118 -82.7107
rradius 27.5307
rwrist 23.798
rhand -9.8408 0.856842
rfingers 7.12502
rthumb 16.1369 -28.4914
lclavicle 2.09097e-014 5.56597e-015
lhumerus -49.0633 0.0237319 81.571
lradius 39.7758
lwrist 41.4798
lhand -15.6246 -10.7339
lfingers 7.12502
lthumb 10.5623 18.9807
rfemur 1.08913 10.5209 28.654
rtibia 23.7327
rfoot -14.4833 23.0003
rtoes -5.65746
lfemur -43.8395 -1.45031 -9.51224
ltibia 25.9001
lfoot -12.4761 -9.92998
ltoes -18.6692
1208
root 9.48279 15.9742 7.57473 6.46007 38.7684 -368.14
lowerback -1.29957 2.69491 7.44623
upperback -6.45753 3.86732 0.351034
thorax -5.56614 1.58858 -3.91527
lowerneck 37.3117 -14.0853 -29.854
upperneck -15.7721 -26.9378 44.9359
head 1.43381 -17.9157 24.0366
rclavicle 7.26185e-015 -1.15295e-014
rhumerus -35.7314 -7.17749 -82.5244
rradius 27.3633
rwrist 23.9167
rhand -9.58534 0.840655
rfingers 7.12502
rthumb 16.3829 -28.4874
lclavicle 7.26185e-015 -1.15295e-014
lhumerus -49.3958 0.190229 81.4513
lradius 39.211
lwrist 41.2953
lhand -15.5235 -10.5561
lfingers 7.12502
lthumb 10.6598 19.1535
rfemur 1.65416 10.5394 28.4421
rtibia 23.715
rfoot -13.448 23.3735
rtoes -5.98761
lfemur -43.6749 -1.6217 -9.77262
ltibia 26.6102
lfoot -11.6385 -10.9328
ltoes -18.4971
